JosefinSans-Italic.ufo
<glyph name="exclam" format="2">
  <advance width="200"/>
  <unicode hex="0021"/>
  <outline>
    <contour>
      <point x="148" y="728" type="line"/>
      <point x="77" y="149" type="line"/>
      <point x="120" y="149" type="line"/>
      <point x="191" y="728" type="line"/>
    </contour>
    <contour>
      <point x="70" y="10" type="curve" smooth="yes"/>
      <point x="82" y="3"/>
      <point x="95" y="2"/>
      <point x="106" y="14" type="curve" smooth="yes"/>
      <point x="116" y="25"/>
      <point x="117" y="41"/>
      <point x="105" y="51" type="curve" smooth="yes"/>
      <point x="92" y="59"/>
      <point x="76" y="57"/>
      <point x="67" y="46" type="curve" smooth="yes"/>
      <point x="57" y="34"/>
      <point x="57" y="19"/>
    </contour>
  </outline>
</glyph>
<glyph name="dollar" format="2">
  <advance width="572"/>
  <unicode hex="0024"/>
  <outline>
    <contour>
      <point x="246" y="-68" type="line"/>
      <point x="279" y="-68" type="line"/>
      <point x="331" y="356" type="line"/>
      <point x="334" y="383" type="line"/>
      <point x="382" y="775" type="line"/>
      <point x="349" y="775" type="line"/>
      <point x="302" y="393" type="line"/>
      <point x="299" y="368" type="line"/>
    </contour>
    <component base="S"/>
  </outline>
</glyph>
<glyph name="parenright" format="2">
  <advance width="344"/>
  <unicode hex="0029"/>
  <outline>
    <contour>
      <point x="265" y="345" type="curve" smooth="yes"/>
      <point x="265" y="345" type="line" smooth="yes"/>
      <point x="271" y="520"/>
      <point x="216" y="670"/>
      <point x="151" y="751" type="curve"/>
      <point x="115" y="725" type="line"/>
      <point x="173" y="646"/>
      <point x="221" y="507"/>
      <point x="215" y="345" type="curve" smooth="yes"/>
      <point x="209" y="131"/>
      <point x="108" y="-37"/>
      <point x="10" y="-134" type="curve"/>
      <point x="39" y="-164" type="line"/>
      <point x="144" y="-66"/>
      <point x="258" y="119"/>
    </contour>
  </outline>
</glyph>
<glyph name="comma" format="2">
  <advance width="201"/>
  <unicode hex="002C"/>
  <outline>
    <contour>
      <point x="26" y="-189" type="line"/>
      <point x="83" y="-160"/>
      <point x="104" y="-97"/>
      <point x="101" y="-43" type="curve"/>
      <point x="57" y="-42" type="line"/>
      <point x="59" y="-97"/>
      <point x="41" y="-145"/>
      <point x="3" y="-170" type="curve"/>
    </contour>
  </outline>
</glyph>
<glyph name="four" format="2">
  <advance width="509"/>
  <unicode hex="0034"/>
  <outline>
    <contour>
      <point x="22" y="173" type="line"/>
      <point x="354" y="173" type="line"/>
      <point x="333" y="0" type="line"/>
      <point x="382" y="0" type="line"/>
      <point x="403" y="173" type="line"/>
      <point x="495" y="173" type="line"/>
      <point x="500" y="212" type="line"/>
      <point x="408" y="212" type="line"/>
      <point x="462" y="661" type="line"/>
      <point x="461" y="661" type="line"/>
      <point x="22" y="174" type="line"/>
    </contour>
    <contour>
      <point x="417" y="555" type="line"/>
      <point x="403" y="572" type="line"/>
      <point x="359" y="212" type="line"/>
      <point x="84" y="212" type="line"/>
      <point x="94" y="192" type="line"/>
    </contour>
  </outline>
</glyph>
<glyph name="seven" format="2">
  <advance width="476"/>
  <unicode hex="0037"/>
  <outline>
    <contour>
      <point x="492" y="653" type="line"/>
      <point x="78" y="653" type="line"/>
      <point x="72" y="607" type="line"/>
      <point x="438" y="607" type="line"/>
      <point x="412" y="618" type="line"/>
      <point x="68" y="0" type="line"/>
      <point x="132" y="0" type="line"/>
    </contour>
  </outline>
</glyph>
<glyph name="eight" format="2">
  <advance width="526"/>
  <unicode hex="0038"/>
  <outline>
    <contour>
      <point x="48" y="188" type="curve" smooth="yes"/>
      <point x="48" y="81"/>
      <point x="133" y="-7"/>
      <point x="251" y="-7" type="curve" smooth="yes"/>
      <point x="388" y="-7"/>
      <point x="480" y="110"/>
      <point x="480" y="214" type="curve" smooth="yes"/>
      <point x="480" y="297"/>
      <point x="426" y="362"/>
      <point x="358" y="388" type="curve"/>
      <point x="415" y="412"/>
      <point x="456" y="458"/>
      <point x="456" y="523" type="curve" smooth="yes"/>
      <point x="456" y="600"/>
      <point x="397" y="661"/>
      <point x="305" y="661" type="curve" smooth="yes"/>
      <point x="207" y="661"/>
      <point x="151" y="593"/>
      <point x="144" y="516" type="curve" smooth="yes"/>
      <point x="139" y="464"/>
      <point x="168" y="419"/>
      <point x="213" y="396" type="curve"/>
      <point x="123" y="373"/>
      <point x="48" y="294"/>
    </contour>
    <contour>
      <point x="97" y="191" type="curve" smooth="yes"/>
      <point x="97" y="286"/>
      <point x="174" y="368"/>
      <point x="274" y="368" type="curve" smooth="yes"/>
      <point x="363" y="368"/>
      <point x="432" y="296"/>
      <point x="432" y="212" type="curve" smooth="yes"/>
      <point x="432" y="116"/>
      <point x="349" y="35"/>
      <point x="253" y="35" type="curve" smooth="yes"/>
      <point x="161" y="35"/>
      <point x="97" y="106"/>
    </contour>
    <contour>
      <point x="190" y="513" type="curve" smooth="yes"/>
      <point x="199" y="580"/>
      <point x="247" y="620"/>
      <point x="307" y="620" type="curve" smooth="yes"/>
      <point x="366" y="620"/>
      <point x="408" y="579"/>
      <point x="408" y="518" type="curve" smooth="yes"/>
      <point x="408" y="479"/>
      <point x="382" y="409"/>
      <point x="296" y="409" type="curve" smooth="yes"/>
      <point x="232" y="409"/>
      <point x="185" y="456"/>
    </contour>
  </outline>
</glyph>
<glyph name="colon" format="2">
  <advance width="176"/>
  <unicode hex="003A"/>
  <outline>
    <contour>
      <point x="55" y="30" type="curve" smooth="yes"/>
      <point x="55" y="30" type="line" smooth="yes"/>
      <point x="55" y="13"/>
      <point x="69" y="0"/>
      <point x="86" y="0" type="curve" smooth="yes"/>
      <point x="104" y="0"/>
      <point x="123" y="16"/>
      <point x="123" y="37" type="curve" smooth="yes"/>
      <point x="123" y="54"/>
      <point x="110" y="68"/>
      <point x="94" y="68" type="curve" smooth="yes"/>
      <point x="75" y="68"/>
      <point x="55" y="51"/>
    </contour>
    <contour>
      <point x="87" y="289" type="curve" smooth="yes"/>
      <point x="87" y="289" type="line" smooth="yes"/>
      <point x="87" y="272"/>
      <point x="102" y="259"/>
      <point x="118" y="259" type="curve" smooth="yes"/>
      <point x="136" y="259"/>
      <point x="155" y="275"/>
      <point x="155" y="296" type="curve" smooth="yes"/>
      <point x="155" y="314"/>
      <point x="142" y="327"/>
      <point x="126" y="327" type="curve" smooth="yes"/>
      <point x="107" y="327"/>
      <point x="87" y="310"/>
    </contour>
  </outline>
</glyph>
<glyph name="semicolon" format="2">
  <advance width="202"/>
  <unicode hex="003B"/>
  <outline>
    <contour>
      <point x="113" y="282" type="curve" smooth="yes"/>
      <point x="113" y="282" type="line" smooth="yes"/>
      <point x="113" y="264"/>
      <point x="126" y="251"/>
      <point x="142" y="251" type="curve" smooth="yes"/>
      <point x="161" y="251"/>
      <point x="180" y="267"/>
      <point x="180" y="288" type="curve" smooth="yes"/>
      <point x="180" y="306"/>
      <point x="167" y="319"/>
      <point x="151" y="319" type="curve" smooth="yes"/>
      <point x="132" y="319"/>
      <point x="113" y="303"/>
    </contour>
    <contour>
      <point x="139" y="87" type="curve"/>
      <point x="90" y="87" type="line"/>
      <point x="55" y="17"/>
      <point x="21" y="-51"/>
      <point x="-13" y="-121" type="curve"/>
      <point x="27" y="-121" type="line"/>
      <point x="64" y="-51"/>
      <point x="101" y="17"/>
    </contour>
  </outline>
</glyph>
<glyph name="equal" format="2">
  <advance width="712"/>
  <unicode hex="003D"/>
  <outline>
    <contour>
      <point x="122" y="177" type="line"/>
      <point x="117" y="135" type="line"/>
      <point x="625" y="135" type="line"/>
      <point x="631" y="177" type="line"/>
    </contour>
    <contour>
      <point x="146" y="372" type="line"/>
      <point x="141" y="330" type="line"/>
      <point x="649" y="330" type="line"/>
      <point x="655" y="372" type="line"/>
    </contour>
  </outline>
</glyph>
<glyph name="greater" format="2">
  <advance width="625"/>
  <unicode hex="003E"/>
  <outline>
    <contour>
      <point x="107" y="43" type="curve"/>
      <point x="100" y="-15" type="line"/>
      <point x="100" y="-15" type="line"/>
      <point x="257" y="70"/>
      <point x="414" y="155"/>
      <point x="571" y="239" type="curve"/>
      <point x="434" y="324"/>
      <point x="299" y="409"/>
      <point x="162" y="493" type="curve"/>
      <point x="155" y="436" type="line"/>
      <point x="260" y="371"/>
      <point x="367" y="305"/>
      <point x="473" y="239" type="curve"/>
      <point x="351" y="174"/>
      <point x="229" y="108"/>
    </contour>
  </outline>
</glyph>
<glyph name="question" format="2">
  <advance width="450"/>
  <unicode hex="003F"/>
  <outline>
    <contour>
      <point x="205" y="262" type="curve" smooth="yes"/>
      <point x="193" y="165" type="line"/>
      <point x="237" y="165" type="line"/>
      <point x="247" y="243" type="line" smooth="yes"/>
      <point x="257" y="324"/>
      <point x="305" y="336"/>
      <point x="355" y="369" type="curve" smooth="yes"/>
      <point x="429" y="419"/>
      <point x="475" y="478"/>
      <point x="475" y="560" type="curve" smooth="yes"/>
      <point x="475" y="657"/>
      <point x="404" y="736"/>
      <point x="301" y="736" type="curve" smooth="yes"/>
      <point x="194" y="736"/>
      <point x="123" y="663"/>
      <point x="92" y="594" type="curve"/>
      <point x="103" y="589"/>
      <point x="116" y="585"/>
      <point x="128" y="581" type="curve"/>
      <point x="128" y="581" type="line"/>
      <point x="158" y="650"/>
      <point x="218" y="693"/>
      <point x="296" y="693" type="curve" smooth="yes"/>
      <point x="376" y="693"/>
      <point x="431" y="636"/>
      <point x="431" y="557" type="curve" smooth="yes"/>
      <point x="431" y="502"/>
      <point x="405" y="453"/>
      <point x="350" y="410" type="curve" smooth="yes"/>
      <point x="280" y="357"/>
      <point x="216" y="346"/>
    </contour>
    <contour>
      <point x="196" y="15" type="curve" smooth="yes"/>
      <point x="196" y="15" type="line" smooth="yes"/>
      <point x="214" y="15"/>
      <point x="234" y="30"/>
      <point x="234" y="52" type="curve" smooth="yes"/>
      <point x="234" y="69"/>
      <point x="219" y="82"/>
      <point x="204" y="82" type="curve" smooth="yes"/>
      <point x="187" y="82"/>
      <point x="167" y="66"/>
      <point x="167" y="45" type="curve" smooth="yes"/>
      <point x="167" y="27"/>
      <point x="181" y="15"/>
    </contour>
  </outline>
</glyph>
<glyph name="F" format="2">
  <advance width="578"/>
  <unicode hex="0046"/>
  <anchor x="265" y="0" name="bottom"/>
  <anchor x="351" y="700" name="top"/>
  <outline>
    <contour>
      <point x="176" y="710" type="line"/>
      <point x="89" y="0" type="line"/>
      <point x="139" y="0" type="line"/>
      <point x="178" y="324" type="line"/>
      <point x="486" y="324" type="line"/>
      <point x="492" y="371" type="line"/>
      <point x="184" y="371" type="line"/>
      <point x="220" y="663" type="line"/>
      <point x="567" y="663" type="line"/>
      <point x="573" y="710" type="line"/>
    </contour>
  </outline>
</glyph>
<glyph name="I" format="2">
  <advance width="278"/>
  <unicode hex="0049"/>
  <anchor x="113" y="0" name="bottom"/>
  <anchor x="137" y="7" name="ogonek"/>
  <anchor x="200" y="708" name="top"/>
  <anchor x="59" y="700" name="topleft"/>
  <outline>
    <contour>
      <point x="176" y="710" type="line"/>
      <point x="89" y="0" type="line"/>
      <point x="139" y="0" type="line"/>
      <point x="226" y="710" type="line"/>
    </contour>
  </outline>
</glyph>
<glyph name="K" format="2">
  <advance width="655"/>
  <unicode hex="004B"/>
  <anchor x="303" y="0" name="bottom"/>
  <anchor x="391" y="710" name="top"/>
  <outline>
    <contour>
      <point x="185" y="390" type="line"/>
      <point x="225" y="710" type="line"/>
      <point x="176" y="710" type="line"/>
      <point x="89" y="0" type="line"/>
      <point x="138" y="0" type="line"/>
      <point x="175" y="306" type="line"/>
      <point x="271" y="388" type="line"/>
      <point x="524" y="0" type="line"/>
      <point x="586" y="0" type="line"/>
      <point x="311" y="419" type="line"/>
      <point x="640" y="710" type="line"/>
      <point x="577" y="710" type="line"/>
      <point x="183" y="364" type="line"/>
      <point x="179" y="355" type="line"/>
    </contour>
  </outline>
</glyph>
<glyph name="M" format="2">
  <advance width="909"/>
  <unicode hex="004D"/>
  <anchor x="435" y="0" name="bottom"/>
  <anchor x="509" y="700" name="top"/>
  <outline>
    <contour>
      <point x="137" y="0" type="line"/>
      <point x="212" y="611" type="line"/>
      <point x="201" y="589" type="line"/>
      <point x="448" y="172" type="line"/>
      <point x="450" y="172" type="line"/>
      <point x="797" y="589" type="line"/>
      <point x="796" y="613" type="line"/>
      <point x="721" y="0" type="line"/>
      <point x="769" y="0" type="line"/>
      <point x="859" y="726" type="line"/>
      <point x="858" y="726" type="line"/>
      <point x="446" y="232" type="line"/>
      <point x="469" y="229" type="line"/>
      <point x="180" y="726" type="line"/>
      <point x="179" y="726" type="line"/>
      <point x="89" y="0" type="line"/>
    </contour>
  </outline>
</glyph>
<glyph name="V" format="2">
  <advance width="694"/>
  <unicode hex="0056"/>
  <anchor x="323" y="0" name="bottom"/>
  <anchor x="386" y="700" name="top"/>
  <outline>
    <contour>
      <point x="319" y="-29" type="line"/>
      <point x="321" y="-29" type="line"/>
      <point x="712" y="710" type="line"/>
      <point x="656" y="710" type="line"/>
      <point x="319" y="58" type="line"/>
      <point x="346" y="54" type="line"/>
      <point x="165" y="710" type="line"/>
      <point x="108" y="710" type="line"/>
    </contour>
  </outline>
</glyph>
<glyph name="W" format="2">
  <advance width="985"/>
  <unicode hex="0057"/>
  <anchor x="491" y="0" name="bottom"/>
  <anchor x="579" y="710" name="top"/>
  <outline>
    <contour>
      <point x="108" y="708" type="line"/>
      <point x="298" y="-33" type="line"/>
      <point x="523" y="406" type="line"/>
      <point x="507" y="469" type="line"/>
      <point x="310" y="72" type="line"/>
      <point x="320" y="69" type="line"/>
      <point x="164" y="708" type="line"/>
    </contour>
    <contour>
      <point x="436" y="708" type="line"/>
      <point x="628" y="-32" type="line"/>
      <point x="1003" y="708" type="line"/>
      <point x="951" y="708" type="line"/>
      <point x="636" y="73" type="line"/>
      <point x="650" y="69" type="line"/>
      <point x="485" y="708" type="line"/>
    </contour>
  </outline>
</glyph>
<glyph name="Y" format="2">
  <advance width="661"/>
  <unicode hex="0059"/>
  <anchor x="310" y="0" name="bottom"/>
  <anchor x="397" y="710" name="top"/>
  <anchor x="103" y="710" name="topleft"/>
  <outline>
    <contour>
      <point x="312" y="253" type="line"/>
      <point x="281" y="0" type="line"/>
      <point x="331" y="0" type="line"/>
      <point x="362" y="253" type="line"/>
      <point x="684" y="710" type="line"/>
      <point x="623" y="710" type="line"/>
      <point x="334" y="293" type="line"/>
      <point x="351" y="294" type="line"/>
      <point x="162" y="710" type="line"/>
      <point x="104" y="710" type="line"/>
    </contour>
  </outline>
</glyph>
<glyph name="bracketright" format="2">
  <advance width="385"/>
  <unicode hex="005D"/>
  <outline>
    <contour>
      <point x="162" y="750" type="line"/>
      <point x="157" y="707" type="line"/>
      <point x="288" y="707" type="line"/>
      <point x="189" y="-107" type="line"/>
      <point x="57" y="-107" type="line"/>
      <point x="51" y="-150" type="line"/>
      <point x="228" y="-150" type="line"/>
      <point x="338" y="750" type="line"/>
    </contour>
  </outline>
</glyph>
<glyph name="grave" format="2">
  <advance width="201"/>
  <unicode hex="0060"/>
  <outline>
    <contour>
      <point x="106" y="615" type="line"/>
      <point x="53" y="615" type="line"/>
      <point x="142" y="482" type="line"/>
      <point x="176" y="482" type="line"/>
    </contour>
  </outline>
</glyph>
<glyph name="b" format="2">
  <advance width="564"/>
  <unicode hex="0062"/>
  <anchor x="277" y="0" name="bottom"/>
  <anchor x="327" y="408" name="top"/>
  <outline>
    <contour>
      <point x="294" y="-7" type="curve" smooth="yes"/>
      <point x="446" y="-7"/>
      <point x="513" y="103"/>
      <point x="513" y="211" type="curve" smooth="yes"/>
      <point x="513" y="329"/>
      <point x="435" y="402"/>
      <point x="324" y="402" type="curve" smooth="yes"/>
      <point x="247" y="402"/>
      <point x="179" y="363"/>
      <point x="143" y="307" type="curve"/>
      <point x="147" y="284" type="line"/>
      <point x="205" y="760" type="line"/>
      <point x="158" y="760" type="line"/>
      <point x="65" y="0" type="line"/>
      <point x="112" y="0" type="line"/>
      <point x="128" y="136" type="line"/>
      <point x="115" y="113" type="line"/>
      <point x="140" y="45"/>
      <point x="206" y="-7"/>
    </contour>
    <contour>
      <point x="292" y="34" type="curve" smooth="yes"/>
      <point x="171" y="34"/>
      <point x="139" y="132"/>
      <point x="133" y="175" type="curve"/>
      <point x="142" y="242" type="line"/>
      <point x="165" y="313"/>
      <point x="231" y="364"/>
      <point x="309" y="364" type="curve" smooth="yes"/>
      <point x="408" y="364"/>
      <point x="464" y="297"/>
      <point x="464" y="208" type="curve" smooth="yes"/>
      <point x="464" y="134"/>
      <point x="422" y="34"/>
    </contour>
  </outline>
</glyph>
<glyph name="h" format="2">
  <advance width="512"/>
  <unicode hex="0068"/>
  <anchor x="236" y="0" name="bottom"/>
  <anchor x="160" y="586" name="center"/>
  <anchor x="174" y="647" name="top"/>
  <outline>
    <contour>
      <point x="145" y="305" type="curve"/>
      <point x="147" y="289" type="line"/>
      <point x="205" y="760" type="line"/>
      <point x="158" y="760" type="line"/>
      <point x="65" y="0" type="line"/>
      <point x="112" y="0" type="line"/>
      <point x="138" y="209" type="line" smooth="yes"/>
      <point x="149" y="297"/>
      <point x="225" y="360"/>
      <point x="309" y="360" type="curve"/>
      <point x="363" y="358"/>
      <point x="389" y="322"/>
      <point x="385" y="276" type="curve"/>
      <point x="352" y="0" type="line"/>
      <point x="399" y="0" type="line"/>
      <point x="434" y="285" type="line"/>
      <point x="440" y="354"/>
      <point x="398" y="402"/>
      <point x="324" y="402" type="curve" smooth="yes"/>
      <point x="246" y="402"/>
      <point x="179" y="361"/>
    </contour>
  </outline>
</glyph>
<glyph name="k" format="2">
  <advance width="451"/>
  <unicode hex="006B"/>
  <anchor x="203" y="0" name="bottom"/>
  <anchor x="252" y="391" name="top"/>
  <outline>
    <contour>
      <point x="65" y="0" type="line"/>
      <point x="112" y="0" type="line"/>
      <point x="206" y="760" type="line"/>
      <point x="158" y="760" type="line"/>
    </contour>
    <contour>
      <point x="233" y="254" type="line"/>
      <point x="197" y="228" type="line"/>
      <point x="329" y="0" type="line"/>
      <point x="384" y="0" type="line"/>
    </contour>
    <contour>
      <point x="113" y="142" type="line"/>
      <point x="406" y="374" type="line"/>
      <point x="374" y="399" type="line"/>
      <point x="109" y="189" type="line"/>
    </contour>
  </outline>
</glyph>
<glyph name="n" format="2">
  <advance width="512"/>
  <unicode hex="006E"/>
  <anchor x="232" y="0" name="bottom"/>
  <anchor x="282" y="408" name="top"/>
  <outline>
    <contour>
      <point x="154" y="391" type="line"/>
      <point x="113" y="391" type="line"/>
      <point x="65" y="0" type="line"/>
      <point x="112" y="0" type="line"/>
      <point x="138" y="209" type="line" smooth="yes"/>
      <point x="148" y="297"/>
      <point x="219" y="360"/>
      <point x="301" y="360" type="curve" smooth="yes"/>
      <point x="360" y="360"/>
      <point x="391" y="324"/>
      <point x="385" y="273" type="curve" smooth="yes"/>
      <point x="352" y="0" type="line"/>
      <point x="399" y="0" type="line"/>
      <point x="434" y="285" type="line" smooth="yes"/>
      <point x="442" y="355"/>
      <point x="398" y="402"/>
      <point x="320" y="402" type="curve" smooth="yes"/>
      <point x="240" y="402"/>
      <point x="174" y="361"/>
      <point x="140" y="301" type="curve"/>
      <point x="149" y="291" type="line"/>
    </contour>
  </outline>
</glyph>
<glyph name="t" format="2">
  <advance width="325"/>
  <unicode hex="0074"/>
  <anchor x="134" y="0" name="bottom"/>
  <anchor x="154" y="191" name="center"/>
  <anchor x="196" y="558" name="top"/>
  <anchor x="295" y="501" name="topright"/>
  <outline>
    <contour>
      <point x="172" y="563" type="line"/>
      <point x="151" y="386" type="line"/>
      <point x="67" y="386" type="line"/>
      <point x="62" y="347" type="line"/>
      <point x="146" y="347" type="line"/>
      <point x="104" y="0" type="line"/>
      <point x="151" y="0" type="line"/>
      <point x="193" y="347" type="line"/>
      <point x="315" y="347" type="line"/>
      <point x="320" y="386" type="line"/>
      <point x="198" y="386" type="line"/>
      <point x="220" y="563" type="line"/>
    </contour>
  </outline>
</glyph>
<glyph name="w" format="2">
  <advance width="666"/>
  <unicode hex="0077"/>
  <anchor x="303" y="0" name="bottom"/>
  <anchor x="351" y="391" name="top"/>
  <outline>
    <contour>
      <point x="425" y="-20" type="line"/>
      <point x="429" y="-20" type="line"/>
      <point x="660" y="391" type="line"/>
      <point x="612" y="391" type="line"/>
      <point x="427" y="62" type="line"/>
      <point x="438" y="63" type="line"/>
      <point x="332" y="391" type="line"/>
      <point x="289" y="391" type="line"/>
      <point x="319" y="302" type="line"/>
      <point x="189" y="62" type="line"/>
      <point x="206" y="57" type="line"/>
      <point x="98" y="391" type="line"/>
      <point x="51" y="391" type="line"/>
      <point x="183" y="-19" type="line"/>
      <point x="187" y="-19" type="line"/>
      <point x="334" y="257" type="line"/>
    </contour>
  </outline>
</glyph>
<glyph name="bar" format="2">
  <advance width="269"/>
  <unicode hex="007C"/>
  <outline>
    <contour>
      <point x="181" y="704" type="line"/>
      <point x="66" y="-233" type="line"/>
      <point x="110" y="-233" type="line"/>
      <point x="225" y="704" type="line"/>
    </contour>
  </outline>
</glyph>
<glyph name="currency" format="2">
  <advance width="502"/>
  <unicode hex="00A4"/>
  <outline>
    <contour>
      <point x="407" y="443" type="curve"/>
      <point x="445" y="477" type="line"/>
      <point x="425" y="500" type="line"/>
      <point x="386" y="467" type="line"/>
      <point x="386" y="467" type="line"/>
      <point x="365" y="487"/>
      <point x="336" y="500"/>
      <point x="303" y="501" type="curve" smooth="yes"/>
      <point x="270" y="501"/>
      <point x="238" y="489"/>
      <point x="212" y="470" type="curve"/>
      <point x="182" y="504" type="line"/>
      <point x="157" y="483" type="line"/>
      <point x="167" y="471"/>
      <point x="176" y="460"/>
      <point x="186" y="448" type="curve"/>
      <point x="162" y="421"/>
      <point x="147" y="390"/>
      <point x="146" y="353" type="curve" smooth="yes"/>
      <point x="146" y="353" type="line" smooth="yes"/>
      <point x="145" y="324"/>
      <point x="152" y="296"/>
      <point x="167" y="275" type="curve"/>
      <point x="126" y="239" type="line"/>
      <point x="147" y="215" type="line"/>
      <point x="188" y="251" type="line"/>
      <point x="188" y="251" type="line"/>
      <point x="208" y="233"/>
      <point x="237" y="222"/>
      <point x="269" y="221" type="curve" smooth="yes"/>
      <point x="301" y="221"/>
      <point x="331" y="231"/>
      <point x="357" y="249" type="curve"/>
      <point x="368" y="237"/>
      <point x="379" y="225"/>
      <point x="390" y="212" type="curve"/>
      <point x="415" y="234" type="line"/>
      <point x="383" y="271" type="line"/>
      <point x="408" y="298"/>
      <point x="425" y="330"/>
      <point x="426" y="368" type="curve" smooth="yes"/>
      <point x="427" y="396"/>
      <point x="420" y="422"/>
    </contour>
    <contour>
      <point x="178" y="353" type="curve" smooth="yes"/>
      <point x="178" y="353" type="line" smooth="yes"/>
      <point x="179" y="418"/>
      <point x="237" y="469"/>
      <point x="299" y="469" type="curve" smooth="yes"/>
      <point x="355" y="468"/>
      <point x="395" y="424"/>
      <point x="394" y="368" type="curve" smooth="yes"/>
      <point x="393" y="304"/>
      <point x="336" y="252"/>
      <point x="273" y="253" type="curve" smooth="yes"/>
      <point x="218" y="254"/>
      <point x="177" y="298"/>
    </contour>
  </outline>
</glyph>
<glyph name="yen" format="2">
  <advance width="661"/>
  <unicode hex="00A5"/>
  <outline>
    <contour>
      <point x="160" y="287" type="line"/>
      <point x="156" y="247" type="line"/>
      <point x="502" y="247" type="line"/>
      <point x="506" y="287" type="line"/>
    </contour>
    <contour>
      <point x="156" y="131" type="line"/>
      <point x="152" y="90" type="line"/>
      <point x="497" y="90" type="line"/>
      <point x="501" y="131" type="line"/>
    </contour>
    <contour>
      <point x="316" y="285" type="line"/>
      <point x="281" y="0" type="line"/>
      <point x="331" y="0" type="line"/>
      <point x="366" y="285" type="line"/>
      <point x="684" y="710" type="line"/>
      <point x="623" y="710" type="line"/>
      <point x="338" y="324" type="line"/>
      <point x="355" y="326" type="line"/>
      <point x="162" y="710" type="line"/>
      <point x="104" y="710" type="line"/>
    </contour>
  </outline>
</glyph>
<glyph name="dieresis" format="2">
  <advance width="372"/>
  <unicode hex="00A8"/>
  <outline>
    <contour>
      <point x="118" y="514" type="curve" smooth="yes"/>
      <point x="118" y="514" type="line" smooth="yes"/>
      <point x="117" y="495"/>
      <point x="132" y="479"/>
      <point x="149" y="479" type="curve" smooth="yes"/>
      <point x="166" y="478"/>
      <point x="183" y="492"/>
      <point x="185" y="512" type="curve" smooth="yes"/>
      <point x="186" y="531"/>
      <point x="171" y="546"/>
      <point x="154" y="547" type="curve" smooth="yes"/>
      <point x="136" y="547"/>
      <point x="119" y="533"/>
    </contour>
    <contour>
      <point x="292" y="514" type="curve" smooth="yes"/>
      <point x="292" y="514" type="line" smooth="yes"/>
      <point x="291" y="494"/>
      <point x="306" y="479"/>
      <point x="323" y="479" type="curve" smooth="yes"/>
      <point x="340" y="478"/>
      <point x="357" y="492"/>
      <point x="359" y="512" type="curve" smooth="yes"/>
      <point x="360" y="531"/>
      <point x="345" y="546"/>
      <point x="328" y="547" type="curve" smooth="yes"/>
      <point x="310" y="547"/>
      <point x="293" y="533"/>
    </contour>
  </outline>
</glyph>
<glyph name="copyright" format="2">
  <advance width="816"/>
  <unicode hex="00A9"/>
  <outline>
    <contour>
      <point x="525" y="215" type="curve"/>
      <point x="507" y="249" type="line"/>
      <point x="483" y="233"/>
      <point x="454" y="226"/>
      <point x="425" y="228" type="curve" smooth="yes"/>
      <point x="352" y="233"/>
      <point x="306" y="293"/>
      <point x="315" y="365" type="curve" smooth="yes"/>
      <point x="325" y="440"/>
      <point x="391" y="494"/>
      <point x="457" y="490" type="curve" smooth="yes"/>
      <point x="485" y="488"/>
      <point x="509" y="481"/>
      <point x="530" y="463" type="curve"/>
      <point x="554" y="499" type="line"/>
      <point x="530" y="519"/>
      <point x="493" y="530"/>
      <point x="460" y="532" type="curve" smooth="yes"/>
      <point x="364" y="538"/>
      <point x="279" y="467"/>
      <point x="267" y="367" type="curve" smooth="yes"/>
      <point x="255" y="275"/>
      <point x="315" y="192"/>
      <point x="414" y="185" type="curve" smooth="yes"/>
      <point x="458" y="182"/>
      <point x="496" y="197"/>
    </contour>
    <contour>
      <point x="393" y="68" type="curve" smooth="yes"/>
      <point x="563" y="58"/>
      <point x="697" y="174"/>
      <point x="717" y="338" type="curve" smooth="yes"/>
      <point x="737" y="505"/>
      <point x="624" y="635"/>
      <point x="463" y="645" type="curve" smooth="yes"/>
      <point x="302" y="654"/>
      <point x="159" y="540"/>
      <point x="138" y="374" type="curve" smooth="yes"/>
      <point x="119" y="209"/>
      <point x="231" y="78"/>
    </contour>
    <contour>
      <point x="397" y="109" type="curve" smooth="yes"/>
      <point x="244" y="118"/>
      <point x="163" y="228"/>
      <point x="180" y="371" type="curve" smooth="yes"/>
      <point x="198" y="514"/>
      <point x="321" y="614"/>
      <point x="457" y="605" type="curve" smooth="yes"/>
      <point x="595" y="596"/>
      <point x="693" y="484"/>
      <point x="674" y="340" type="curve" smooth="yes"/>
      <point x="657" y="200"/>
      <point x="534" y="100"/>
    </contour>
  </outline>
</glyph>
<glyph name="guillemetleft" format="2">
  <advance width="604"/>
  <unicode hex="00AB"/>
  <outline>
    <contour>
      <point x="147" y="240" type="curve"/>
      <point x="297" y="67" type="line"/>
      <point x="303" y="116" type="line"/>
      <point x="273" y="152"/>
      <point x="233" y="204"/>
      <point x="203" y="240" type="curve"/>
      <point x="242" y="276"/>
      <point x="295" y="327"/>
      <point x="334" y="363" type="curve"/>
      <point x="340" y="413" type="line"/>
      <point x="293" y="373"/>
      <point x="194" y="280"/>
    </contour>
    <contour>
      <point x="319" y="240" type="curve"/>
      <point x="469" y="67" type="line"/>
      <point x="475" y="116" type="line"/>
      <point x="445" y="152"/>
      <point x="405" y="204"/>
      <point x="375" y="240" type="curve"/>
      <point x="414" y="276"/>
      <point x="467" y="328"/>
      <point x="506" y="363" type="curve"/>
      <point x="512" y="413" type="line"/>
      <point x="465" y="373"/>
      <point x="366" y="280"/>
    </contour>
  </outline>
</glyph>
<glyph name="logicalnot" format="2">
  <advance width="535"/>
  <unicode hex="00AC"/>
  <outline>
    <contour>
      <point x="113" y="264" type="line"/>
      <point x="106" y="217" type="line"/>
      <point x="419" y="217" type="line"/>
      <point x="409" y="133" type="line"/>
      <point x="458" y="133" type="line"/>
      <point x="474" y="264" type="line"/>
    </contour>
  </outline>
</glyph>
<glyph name="plusminus" format="2">
  <advance width="527"/>
  <unicode hex="00B1"/>
  <outline>
    <contour>
      <point x="316" y="574" type="line"/>
      <point x="296" y="415" type="line"/>
      <point x="137" y="415" type="line"/>
      <point x="133" y="372" type="line"/>
      <point x="292" y="372" type="line"/>
      <point x="272" y="212" type="line"/>
      <point x="315" y="212" type="line"/>
      <point x="336" y="372" type="line"/>
      <point x="495" y="372" type="line"/>
      <point x="499" y="415" type="line"/>
      <point x="340" y="415" type="line"/>
      <point x="360" y="574" type="line"/>
    </contour>
    <contour>
      <point x="106" y="159" type="line"/>
      <point x="101" y="116" type="line"/>
      <point x="463" y="116" type="line"/>
      <point x="468" y="159" type="line"/>
    </contour>
  </outline>
</glyph>
<glyph name="acute" format="2">
  <advance width="243"/>
  <unicode hex="00B4"/>
  <outline>
    <contour>
      <point x="295" y="615" type="line"/>
      <point x="243" y="615" type="line"/>
      <point x="144" y="482" type="line"/>
      <point x="178" y="482" type="line"/>
    </contour>
  </outline>
</glyph>
<glyph name="paragraph" format="2">
  <advance width="516"/>
  <unicode hex="00B6"/>
  <outline>
    <contour>
      <point x="254" y="425" type="curve"/>
      <point x="202" y="0" type="line"/>
      <point x="245" y="0" type="line"/>
      <point x="333" y="712" type="line"/>
      <point x="454" y="712" type="line"/>
      <point x="366" y="0" type="line"/>
      <point x="409" y="0" type="line"/>
      <point x="502" y="754" type="line"/>
      <point x="295" y="754" type="line" smooth="yes"/>
      <point x="196" y="754"/>
      <point x="110" y="672"/>
      <point x="110" y="572" type="curve" smooth="yes"/>
      <point x="110" y="490"/>
      <point x="170" y="425"/>
    </contour>
  </outline>
</glyph>
<glyph name="ae" format="2">
  <advance width="776"/>
  <unicode hex="00E6"/>
  <anchor x="361" y="0" name="bottom"/>
  <anchor x="409" y="391" name="top"/>
  <outline>
    <contour>
      <point x="522" y="-8" type="curve"/>
      <point x="573" y="-11"/>
      <point x="625" y="6"/>
      <point x="667" y="34" type="curve"/>
      <point x="647" y="70" type="line"/>
      <point x="614" y="45"/>
      <point x="572" y="31"/>
      <point x="529" y="33" type="curve"/>
      <point x="431" y="40"/>
      <point x="376" y="120"/>
      <point x="386" y="208" type="curve"/>
      <point x="398" y="301"/>
      <point x="476" y="368"/>
      <point x="566" y="363" type="curve"/>
      <point x="632" y="359"/>
      <point x="673" y="312"/>
      <point x="690" y="257" type="curve"/>
      <point x="702" y="270" type="line"/>
      <point x="369" y="176" type="line"/>
      <point x="373" y="141" type="line"/>
      <point x="741" y="244" type="line"/>
      <point x="724" y="333"/>
      <point x="667" y="396"/>
      <point x="574" y="402" type="curve"/>
      <point x="457" y="409"/>
      <point x="353" y="323"/>
      <point x="339" y="209" type="curve"/>
      <point x="325" y="93"/>
      <point x="401" y="0"/>
    </contour>
    <contour>
      <point x="200" y="-10" type="curve" smooth="yes"/>
      <point x="245" y="-10"/>
      <point x="312" y="1"/>
      <point x="353" y="46" type="curve"/>
      <point x="366" y="152" type="line"/>
      <point x="339" y="205" type="line"/>
      <point x="322" y="68" type="line"/>
      <point x="293" y="39"/>
      <point x="250" y="27"/>
      <point x="212" y="26" type="curve" smooth="yes"/>
      <point x="147" y="24"/>
      <point x="96" y="48"/>
      <point x="93" y="101" type="curve" smooth="yes"/>
      <point x="90" y="147"/>
      <point x="127" y="193"/>
      <point x="208" y="188" type="curve"/>
      <point x="266" y="189"/>
      <point x="312" y="159"/>
      <point x="348" y="105" type="curve"/>
      <point x="361" y="137" type="line"/>
      <point x="333" y="188"/>
      <point x="270" y="223"/>
      <point x="203" y="228" type="curve"/>
      <point x="89" y="234"/>
      <point x="40" y="171"/>
      <point x="40" y="104" type="curve" smooth="yes"/>
      <point x="40" y="33"/>
      <point x="106" y="-10"/>
    </contour>
    <contour>
      <point x="339" y="205" type="line"/>
      <point x="391" y="246" type="line"/>
      <point x="394" y="267" type="line"/>
      <point x="403" y="345"/>
      <point x="364" y="395"/>
      <point x="268" y="401" type="curve"/>
      <point x="192" y="405"/>
      <point x="133" y="377"/>
      <point x="87" y="336" type="curve"/>
      <point x="108" y="303" type="line"/>
      <point x="157" y="347"/>
      <point x="205" y="363"/>
      <point x="257" y="360" type="curve"/>
      <point x="306" y="357"/>
      <point x="356" y="337"/>
      <point x="346" y="256" type="curve"/>
    </contour>
  </outline>
</glyph>
<glyph name="divide" format="2">
  <advance width="503"/>
  <unicode hex="00F7"/>
  <outline>
    <contour>
      <point x="230" y="94" type="curve" smooth="yes"/>
      <point x="230" y="94" type="line" smooth="yes"/>
      <point x="230" y="76"/>
      <point x="244" y="63"/>
      <point x="261" y="63" type="curve" smooth="yes"/>
      <point x="279" y="63"/>
      <point x="298" y="79"/>
      <point x="298" y="100" type="curve" smooth="yes"/>
      <point x="298" y="118"/>
      <point x="284" y="131"/>
      <point x="269" y="131" type="curve" smooth="yes"/>
      <point x="250" y="131"/>
      <point x="230" y="115"/>
    </contour>
    <contour>
      <point x="263" y="361" type="curve" smooth="yes"/>
      <point x="263" y="361" type="line" smooth="yes"/>
      <point x="263" y="343"/>
      <point x="277" y="331"/>
      <point x="293" y="331" type="curve" smooth="yes"/>
      <point x="312" y="331"/>
      <point x="331" y="346"/>
      <point x="331" y="368" type="curve" smooth="yes"/>
      <point x="331" y="385"/>
      <point x="317" y="398"/>
      <point x="302" y="398" type="curve" smooth="yes"/>
      <point x="283" y="398"/>
      <point x="263" y="382"/>
    </contour>
    <contour>
      <point x="100" y="252" type="line"/>
      <point x="94" y="209" type="line"/>
      <point x="456" y="209" type="line"/>
      <point x="462" y="252" type="line"/>
    </contour>
  </outline>
</glyph>
<glyph name="thorn" format="2">
  <advance width="552"/>
  <unicode hex="00FE"/>
  <outline>
    <contour>
      <point x="200" y="760" type="line"/>
      <point x="158" y="760" type="line"/>
      <point x="42" y="-188" type="line"/>
      <point x="83" y="-188" type="line"/>
      <point x="121" y="107" type="line"/>
      <point x="110" y="94" type="line"/>
      <point x="130" y="37"/>
      <point x="191" y="-8"/>
      <point x="271" y="-8" type="curve" smooth="yes"/>
      <point x="395" y="-8"/>
      <point x="502" y="74"/>
      <point x="502" y="219" type="curve" smooth="yes"/>
      <point x="502" y="325"/>
      <point x="429" y="400"/>
      <point x="323" y="400" type="curve" smooth="yes"/>
      <point x="241" y="400"/>
      <point x="171" y="354"/>
      <point x="137" y="297" type="curve"/>
      <point x="140" y="274" type="line"/>
    </contour>
    <contour>
      <point x="458" y="215" type="curve" smooth="yes"/>
      <point x="458" y="97"/>
      <point x="376" y="33"/>
      <point x="275" y="33" type="curve" smooth="yes"/>
      <point x="190" y="33"/>
      <point x="129" y="97"/>
      <point x="129" y="180" type="curve" smooth="yes"/>
      <point x="129" y="279"/>
      <point x="215" y="360"/>
      <point x="315" y="360" type="curve" smooth="yes"/>
      <point x="399" y="360"/>
      <point x="458" y="296"/>
    </contour>
  </outline>
</glyph>
<glyph name="dcroat" format="2">
  <advance width="529"/>
  <unicode hex="0111"/>
  <outline>
    <contour>
      <point x="304" y="649" type="line"/>
      <point x="300" y="612" type="line"/>
      <point x="588" y="612" type="line"/>
      <point x="593" y="649" type="line"/>
    </contour>
    <component base="d"/>
  </outline>
</glyph>
<glyph name="iogonek" format="2">
  <advance width="201"/>
  <unicode hex="012F"/>
  <outline>
    <contour>
      <point x="66" y="-197" type="curve"/>
      <point x="102" y="-198"/>
      <point x="138" y="-172"/>
      <point x="157" y="-140" type="curve"/>
      <point x="138" y="-116" type="line"/>
      <point x="121" y="-143"/>
      <point x="99" y="-161"/>
      <point x="73" y="-161" type="curve"/>
      <point x="46" y="-160"/>
      <point x="21" y="-140"/>
      <point x="22" y="-104" type="curve"/>
      <point x="23" y="-65"/>
      <point x="58" y="-31"/>
      <point x="118" y="1" type="curve"/>
      <point x="165" y="391" type="line"/>
      <point x="118" y="391" type="line"/>
      <point x="70" y="0" type="line"/>
      <point x="108" y="5" type="line"/>
      <point x="79" y="14" type="line"/>
      <point x="20" y="-13"/>
      <point x="-20" y="-63"/>
      <point x="-20" y="-110" type="curve"/>
      <point x="-20" y="-161"/>
      <point x="19" y="-195"/>
    </contour>
    <component base="dotaccentcomb" xOffset="-6" yOffset="-11"/>
  </outline>
</glyph>
<glyph name="kgreenlandic" format="2">
  <advance width="452"/>
  <unicode hex="0138"/>
  <outline>
    <contour>
      <point x="122" y="135" type="line"/>
      <point x="420" y="391" type="line"/>
      <point x="360" y="391" type="line"/>
      <point x="119" y="178" type="line"/>
    </contour>
    <contour>
      <point x="112" y="0" type="line"/>
      <point x="160" y="391" type="line"/>
      <point x="113" y="391" type="line"/>
      <point x="65" y="0" type="line"/>
    </contour>
    <contour>
      <point x="205" y="221" type="line"/>
      <point x="169" y="197" type="line"/>
      <point x="322" y="0" type="line"/>
      <point x="378" y="0" type="line"/>
    </contour>
  </outline>
</glyph>
<glyph name="Lslash" format="2">
  <advance width="574"/>
  <unicode hex="0141"/>
  <outline>
    <contour>
      <point x="417" y="425" type="line"/>
      <point x="59" y="307" type="line"/>
      <point x="53" y="265" type="line"/>
      <point x="411" y="383" type="line"/>
    </contour>
    <component base="L"/>
  </outline>
</glyph>
<glyph name="oogonek" format="2">
  <advance width="519"/>
  <unicode hex="01EB"/>
  <anchor x="306" y="-1" name="ogonek"/>
  <outline>
    <contour>
      <point x="326" y="11" type="curve"/>
      <point x="279" y="13" type="line"/>
      <point x="224" y="-10"/>
      <point x="186" y="-61"/>
      <point x="186" y="-119" type="curve"/>
      <point x="186" y="-170"/>
      <point x="225" y="-205"/>
      <point x="271" y="-206" type="curve"/>
      <point x="307" y="-207"/>
      <point x="344" y="-181"/>
      <point x="363" y="-149" type="curve"/>
      <point x="344" y="-125" type="line"/>
      <point x="327" y="-152"/>
      <point x="305" y="-171"/>
      <point x="278" y="-170" type="curve"/>
      <point x="252" y="-170"/>
      <point x="227" y="-148"/>
      <point x="228" y="-113" type="curve"/>
      <point x="229" y="-53"/>
      <point x="281" y="-12"/>
      <point x="332" y="9" type="curve" smooth="yes"/>
      <point x="422" y="41"/>
      <point x="468" y="121"/>
      <point x="468" y="212" type="curve" smooth="yes"/>
      <point x="468" y="325"/>
      <point x="379" y="402"/>
      <point x="270" y="402" type="curve" smooth="yes"/>
      <point x="116" y="402"/>
      <point x="50" y="283"/>
      <point x="50" y="183" type="curve" smooth="yes"/>
      <point x="50" y="66"/>
      <point x="143" y="-8"/>
      <point x="248" y="-8" type="curve" smooth="yes"/>
      <point x="282" y="-8"/>
      <point x="303" y="0"/>
    </contour>
    <contour>
      <point x="250" y="32" type="curve" smooth="yes"/>
      <point x="167" y="32"/>
      <point x="98" y="94"/>
      <point x="98" y="185" type="curve" smooth="yes"/>
      <point x="98" y="269"/>
      <point x="151" y="362"/>
      <point x="268" y="362" type="curve" smooth="yes"/>
      <point x="349" y="362"/>
      <point x="420" y="302"/>
      <point x="420" y="209" type="curve" smooth="yes"/>
      <point x="420" y="126"/>
      <point x="368" y="32"/>
    </contour>
  </outline>
</glyph>
<glyph name="circumflex" format="2">
  <advance width="457"/>
  <unicode hex="02C6"/>
  <outline>
    <contour>
      <point x="378" y="482" type="line"/>
      <point x="423" y="482" type="line"/>
      <point x="307" y="663" type="line"/>
      <point x="307" y="663" type="line"/>
      <point x="148" y="482" type="line"/>
      <point x="193" y="482" type="line"/>
      <point x="311" y="622" type="line"/>
      <point x="295" y="619" type="line"/>
    </contour>
  </outline>
</glyph>
<glyph name="caron" format="2">
  <advance width="453"/>
  <unicode hex="02C7"/>
  <outline>
    <contour>
      <point x="218" y="663" type="line"/>
      <point x="173" y="663" type="line"/>
      <point x="288" y="482" type="line"/>
      <point x="289" y="482" type="line"/>
      <point x="449" y="663" type="line"/>
      <point x="404" y="663" type="line"/>
      <point x="284" y="524" type="line"/>
      <point x="301" y="526" type="line"/>
    </contour>
  </outline>
</glyph>
<glyph name="dotaccent" format="2">
  <advance width="207"/>
  <unicode hex="02D9"/>
  <outline>
    <contour>
      <point x="124" y="530" type="curve" smooth="yes"/>
      <point x="123" y="513"/>
      <point x="137" y="497"/>
      <point x="155" y="496" type="curve" smooth="yes"/>
      <point x="174" y="496"/>
      <point x="193" y="510"/>
      <point x="194" y="530" type="curve" smooth="yes"/>
      <point x="196" y="548"/>
      <point x="181" y="563"/>
      <point x="164" y="563" type="curve" smooth="yes"/>
      <point x="145" y="564"/>
      <point x="125" y="549"/>
    </contour>
  </outline>
</glyph>
<glyph name="pi" format="2">
  <advance width="313"/>
  <unicode hex="03C0"/>
  <outline>
    <contour>
      <point x="44" y="333" type="line"/>
      <point x="38" y="290" type="line"/>
      <point x="91" y="290" type="line"/>
      <point x="55" y="0" type="line"/>
      <point x="99" y="0" type="line"/>
      <point x="135" y="290" type="line"/>
      <point x="258" y="290" type="line"/>
      <point x="222" y="0" type="line"/>
      <point x="265" y="0" type="line"/>
      <point x="301" y="290" type="line"/>
      <point x="346" y="290" type="line"/>
      <point x="351" y="333" type="line"/>
    </contour>
  </outline>
</glyph>
<glyph name="quotesinglbase" format="2">
  <advance width="147"/>
  <unicode hex="201A"/>
  <outline>
    <contour>
      <point x="34" y="-50" type="curve"/>
      <point x="34" y="-50" type="line"/>
      <point x="77" y="-14"/>
      <point x="101" y="38"/>
      <point x="97" y="93" type="curve"/>
      <point x="86" y="91"/>
      <point x="74" y="88"/>
      <point x="63" y="86" type="curve"/>
      <point x="66" y="39"/>
      <point x="47" y="-2"/>
      <point x="16" y="-29" type="curve"/>
      <point x="22" y="-36"/>
      <point x="28" y="-43"/>
    </contour>
  </outline>
</glyph>
<glyph name="quotedblleft" format="2">
  <advance width="250"/>
  <unicode hex="201C"/>
  <outline>
    <contour>
      <point x="170" y="593" type="curve"/>
      <point x="170" y="593" type="line"/>
      <point x="146" y="620"/>
      <point x="136" y="661"/>
      <point x="151" y="708" type="curve"/>
      <point x="141" y="710"/>
      <point x="129" y="713"/>
      <point x="119" y="715" type="curve"/>
      <point x="101" y="661"/>
      <point x="113" y="609"/>
      <point x="146" y="573" type="curve"/>
      <point x="155" y="579"/>
      <point x="163" y="586"/>
    </contour>
    <contour>
      <point x="274" y="593" type="curve"/>
      <point x="274" y="593" type="line"/>
      <point x="250" y="620"/>
      <point x="241" y="661"/>
      <point x="255" y="708" type="curve"/>
      <point x="245" y="710"/>
      <point x="234" y="713"/>
      <point x="223" y="715" type="curve"/>
      <point x="206" y="661"/>
      <point x="218" y="609"/>
      <point x="251" y="573" type="curve"/>
      <point x="259" y="579"/>
      <point x="267" y="586"/>
    </contour>
  </outline>
</glyph>
<glyph name="quotedblbase" format="2">
  <advance width="281"/>
  <unicode hex="201E"/>
  <outline>
    <contour>
      <point x="34" y="-50" type="curve"/>
      <point x="34" y="-50" type="line"/>
      <point x="77" y="-14"/>
      <point x="101" y="38"/>
      <point x="97" y="93" type="curve"/>
      <point x="86" y="91"/>
      <point x="74" y="88"/>
      <point x="63" y="86" type="curve"/>
      <point x="66" y="39"/>
      <point x="47" y="-2"/>
      <point x="16" y="-29" type="curve"/>
      <point x="22" y="-36"/>
      <point x="28" y="-43"/>
    </contour>
    <contour>
      <point x="139" y="-50" type="curve"/>
      <point x="139" y="-50" type="line"/>
      <point x="181" y="-14"/>
      <point x="206" y="38"/>
      <point x="202" y="93" type="curve"/>
      <point x="191" y="91"/>
      <point x="178" y="88"/>
      <point x="168" y="86" type="curve"/>
      <point x="171" y="39"/>
      <point x="152" y="-2"/>
      <point x="120" y="-29" type="curve"/>
      <point x="126" y="-36"/>
      <point x="133" y="-43"/>
    </contour>
  </outline>
</glyph>
<glyph name="perthousand" format="2">
  <advance width="1071"/>
  <unicode hex="2030"/>
  <outline>
    <contour>
      <point x="233" y="240" type="curve" smooth="yes"/>
      <point x="318" y="244"/>
      <point x="362" y="329"/>
      <point x="362" y="414" type="curve" smooth="yes"/>
      <point x="362" y="529"/>
      <point x="278" y="544"/>
      <point x="247" y="544" type="curve" smooth="yes"/>
      <point x="159" y="542"/>
      <point x="113" y="457"/>
      <point x="113" y="371" type="curve" smooth="yes"/>
      <point x="113" y="252"/>
      <point x="197" y="240"/>
    </contour>
    <contour>
      <point x="233" y="275" type="curve" smooth="yes"/>
      <point x="213" y="275"/>
      <point x="156" y="280"/>
      <point x="156" y="372" type="curve" smooth="yes"/>
      <point x="156" y="434"/>
      <point x="182" y="506"/>
      <point x="244" y="508" type="curve" smooth="yes"/>
      <point x="261" y="508"/>
      <point x="320" y="503"/>
      <point x="320" y="412" type="curve" smooth="yes"/>
      <point x="320" y="352"/>
      <point x="292" y="278"/>
    </contour>
    <contour>
      <point x="564" y="-4" type="curve" smooth="yes"/>
      <point x="651" y="-1"/>
      <point x="696" y="85"/>
      <point x="696" y="168" type="curve" smooth="yes"/>
      <point x="696" y="285"/>
      <point x="612" y="300"/>
      <point x="580" y="300" type="curve" smooth="yes"/>
      <point x="490" y="297"/>
      <point x="447" y="211"/>
      <point x="447" y="125" type="curve" smooth="yes"/>
      <point x="447" y="8"/>
      <point x="531" y="-4"/>
    </contour>
    <contour>
      <point x="565" y="31" type="curve" smooth="yes"/>
      <point x="545" y="31"/>
      <point x="489" y="37"/>
      <point x="489" y="128" type="curve" smooth="yes"/>
      <point x="489" y="188"/>
      <point x="514" y="263"/>
      <point x="577" y="264" type="curve" smooth="yes"/>
      <point x="596" y="264"/>
      <point x="653" y="258"/>
      <point x="653" y="170" type="curve" smooth="yes"/>
      <point x="653" y="112"/>
      <point x="629" y="34"/>
    </contour>
    <contour>
      <point x="636" y="546" type="line"/>
      <point x="587" y="546" type="line"/>
      <point x="173" y="0" type="line"/>
      <point x="221" y="-1" type="line"/>
    </contour>
    <contour>
      <point x="860" y="-4" type="curve" smooth="yes"/>
      <point x="946" y="-1"/>
      <point x="991" y="85"/>
      <point x="991" y="168" type="curve" smooth="yes"/>
      <point x="991" y="285"/>
      <point x="907" y="300"/>
      <point x="875" y="300" type="curve" smooth="yes"/>
      <point x="785" y="297"/>
      <point x="742" y="211"/>
      <point x="742" y="125" type="curve" smooth="yes"/>
      <point x="742" y="11"/>
      <point x="822" y="-4"/>
    </contour>
    <contour>
      <point x="858" y="31" type="curve" smooth="yes"/>
      <point x="841" y="31"/>
      <point x="784" y="37"/>
      <point x="784" y="128" type="curve" smooth="yes"/>
      <point x="784" y="188"/>
      <point x="810" y="263"/>
      <point x="873" y="264" type="curve" smooth="yes"/>
      <point x="887" y="264"/>
      <point x="948" y="261"/>
      <point x="948" y="170" type="curve" smooth="yes"/>
      <point x="948" y="112"/>
      <point x="924" y="32"/>
    </contour>
  </outline>
</glyph>
<glyph name="lira" format="2">
  <advance width="600"/>
  <unicode hex="20A4"/>
  <outline>
    <contour>
      <point x="340" y="371" type="line"/>
      <point x="90" y="371" type="line"/>
      <point x="84" y="326" type="line"/>
      <point x="334" y="326" type="line"/>
    </contour>
    <contour>
      <point x="324" y="245" type="line"/>
      <point x="75" y="245" type="line"/>
      <point x="69" y="201" type="line"/>
      <point x="319" y="201" type="line"/>
    </contour>
    <contour>
      <point x="174" y="516" type="curve" smooth="yes"/>
      <point x="132" y="177" type="line" smooth="yes"/>
      <point x="120" y="74"/>
      <point x="110" y="47"/>
      <point x="64" y="47" type="curve" smooth="yes"/>
      <point x="20" y="47" type="line"/>
      <point x="14" y="0" type="line"/>
      <point x="377" y="0" type="line" smooth="yes"/>
      <point x="491" y="0"/>
      <point x="506" y="46"/>
      <point x="514" y="98" type="curve" smooth="yes"/>
      <point x="519" y="147" type="line"/>
      <point x="475" y="147" type="line"/>
      <point x="469" y="96" type="line" smooth="yes"/>
      <point x="465" y="59"/>
      <point x="436" y="47"/>
      <point x="370" y="47" type="curve" smooth="yes"/>
      <point x="143" y="47" type="line"/>
      <point x="143" y="47" type="line"/>
      <point x="165" y="66"/>
      <point x="174" y="120"/>
      <point x="177" y="138" type="curve" smooth="yes"/>
      <point x="179" y="161" type="line"/>
      <point x="221" y="504" type="line" smooth="yes"/>
      <point x="229" y="566"/>
      <point x="266" y="614"/>
      <point x="367" y="614" type="curve" smooth="yes"/>
      <point x="449" y="614"/>
      <point x="472" y="587"/>
      <point x="492" y="543" type="curve"/>
      <point x="531" y="567" type="line"/>
      <point x="508" y="624"/>
      <point x="463" y="661"/>
      <point x="372" y="661" type="curve" smooth="yes"/>
      <point x="264" y="661"/>
      <point x="186" y="610"/>
    </contour>
  </outline>
</glyph>
<glyph name="peso" format="2">
  <advance width="567"/>
  <unicode hex="20B1"/>
  <outline>
    <contour>
      <point x="497" y="588" type="line"/>
      <point x="492" y="552" type="line"/>
      <point x="612" y="552" type="line"/>
      <point x="616" y="588" type="line"/>
    </contour>
    <contour>
      <point x="486" y="457" type="line"/>
      <point x="482" y="421" type="line"/>
      <point x="596" y="421" type="line"/>
      <point x="600" y="457" type="line"/>
    </contour>
    <contour>
      <point x="164" y="421" type="line"/>
      <point x="169" y="457" type="line"/>
      <point x="47" y="457" type="line"/>
      <point x="42" y="421" type="line"/>
    </contour>
    <contour>
      <point x="180" y="552" type="line"/>
      <point x="185" y="588" type="line"/>
      <point x="63" y="588" type="line"/>
      <point x="58" y="552" type="line"/>
    </contour>
    <component base="P" xOffset="-6"/>
  </outline>
</glyph>
<glyph name="increment" format="2">
  <advance width="502"/>
  <unicode hex="2206"/>
  <outline>
    <contour>
      <point x="326" y="733" type="line"/>
      <point x="326" y="733" type="line"/>
      <point x="111" y="275" type="line"/>
      <point x="145" y="275" type="line"/>
      <point x="315" y="641" type="line"/>
      <point x="394" y="275" type="line"/>
      <point x="429" y="275" type="line"/>
    </contour>
    <contour>
      <point x="142" y="304" type="line"/>
      <point x="138" y="275" type="line"/>
      <point x="405" y="275" type="line"/>
      <point x="409" y="304" type="line"/>
    </contour>
  </outline>
</glyph>
<glyph name="integral" format="2">
  <advance width="336"/>
  <unicode hex="222B"/>
  <outline>
    <contour>
      <point x="293" y="707" type="curve" smooth="yes"/>
      <point x="345" y="707" type="line"/>
      <point x="350" y="750" type="line"/>
      <point x="302" y="750" type="line" smooth="yes"/>
      <point x="250" y="750"/>
      <point x="202" y="754"/>
      <point x="187" y="631" type="curve"/>
      <point x="187" y="631" type="line"/>
      <point x="110" y="2" type="line" smooth="yes"/>
      <point x="99" y="-81"/>
      <point x="86" y="-107"/>
      <point x="44" y="-107" type="curve" smooth="yes"/>
      <point x="-7" y="-107" type="line"/>
      <point x="-13" y="-149" type="line"/>
      <point x="35" y="-149" type="line" smooth="yes"/>
      <point x="93" y="-149"/>
      <point x="135" y="-154"/>
      <point x="153" y="-10" type="curve" smooth="yes"/>
      <point x="227" y="599" type="line" smooth="yes"/>
      <point x="237" y="682"/>
      <point x="252" y="707"/>
    </contour>
  </outline>
</glyph>
<glyph name="lessequal" format="2">
  <advance width="554"/>
  <unicode hex="2264"/>
  <outline>
    <contour>
      <point x="480" y="219" type="curve"/>
      <point x="487" y="276" type="line"/>
      <point x="487" y="276" type="line"/>
      <point x="382" y="342"/>
      <point x="276" y="408"/>
      <point x="170" y="473" type="curve"/>
      <point x="291" y="539"/>
      <point x="415" y="604"/>
      <point x="535" y="670" type="curve"/>
      <point x="542" y="727" type="line"/>
      <point x="386" y="643"/>
      <point x="229" y="557"/>
      <point x="72" y="473" type="curve"/>
      <point x="208" y="388"/>
      <point x="344" y="303"/>
    </contour>
    <contour>
      <point x="68" y="124" type="line"/>
      <point x="63" y="81" type="line"/>
      <point x="425" y="81" type="line"/>
      <point x="430" y="124" type="line"/>
    </contour>
  </outline>
</glyph>
<glyph name="fi" format="2">
  <advance width="536"/>
  <unicode hex="FB01"/>
  <outline>
    <contour>
      <point x="91" y="0" type="line"/>
      <point x="138" y="0" type="line"/>
      <point x="180" y="347" type="line"/>
      <point x="306" y="347" type="line"/>
      <point x="311" y="390" type="line"/>
      <point x="185" y="390" type="line"/>
      <point x="210" y="588" type="line" smooth="yes"/>
      <point x="222" y="690"/>
      <point x="255" y="725"/>
      <point x="313" y="725" type="curve" smooth="yes"/>
      <point x="327" y="725"/>
      <point x="338" y="722"/>
      <point x="346" y="715" type="curve"/>
      <point x="371" y="749" type="line"/>
      <point x="353" y="759"/>
      <point x="331" y="764"/>
      <point x="313" y="764" type="curve" smooth="yes"/>
      <point x="228" y="764"/>
      <point x="177" y="712"/>
      <point x="162" y="587" type="curve" smooth="yes"/>
      <point x="138" y="390" type="line"/>
      <point x="71" y="390" type="line"/>
      <point x="66" y="347" type="line"/>
      <point x="133" y="347" type="line"/>
    </contour>
    <component base="i" xOffset="298"/>
  </outline>
</glyph>
